<?xml version="1.0" encoding="UTF-8"?>
<!DOCTYPE svg PUBLIC "-//W3C//DTD SVG 1.1//EN" "http://www.w3.org/Graphics/SVG/1.1/DTD/svg11.dtd">
<svg xmlns="http://www.w3.org/2000/svg" xml:space="preserve" width="206.032mm" height="81.5909mm" version="1.1" shape-rendering="geometricPrecision" text-rendering="geometricPrecision" image-rendering="optimizeQuality" fill-rule="evenodd" clip-rule="evenodd"
viewBox="0 0 20603.16 8159.09"
 xmlns:xlink="http://www.w3.org/1999/xlink"
 xmlns:xodm="http://www.corel.com/coreldraw/odm/2003">
 <g id="Layer_x0020_1">
  <metadata id="CorelCorpID_0Corel-Layer"/>
  <g id="_1790834221088">
   <g>
    <path fill="#2873B9" fill-rule="nonzero" d="M210.84 429.59l-0.17 -8.62 0.17 8.62zm3279 7457.1c-16.83,6.32 -1024.26,-572.54 -1470.53,-842.26 -267.71,-161.75 -526.98,-334.17 -767.2,-530.65 -284.67,-232.73 -535.86,-493.73 -758.52,-778.86 -168.84,-216.06 -490.83,-722 -490.83,-751.68 0.62,-1538.79 0.55,-3077.52 0.62,-4616.25 0,-5.98 366.89,651.72 567.18,942.95 247.77,360.18 536.1,688.8 873.45,979.32 318.1,273.94 670.27,503.38 1049.06,698.08 286.95,147.48 996.77,446.2 996.77,446.2l0 4453.15zm16642.08 -7062.06c-118.59,0 -219.9,-40.22 -303.62,-120.62 -83.69,-80.44 -125.55,-177.77 -125.55,-291.71 0,-113.9 41.86,-211.24 125.55,-291.68 83.72,-80.43 185.03,-120.62 303.62,-120.62 118.23,0 219.21,40.19 302.93,120.62 83.72,80.44 125.55,177.78 125.55,291.68 0,113.94 -41.83,211.27 -125.55,291.71 -83.72,80.4 -184.7,120.62 -302.93,120.62zm0 -776.14c-104.65,0 -193.68,35.44 -267.73,106.59 -74.08,71.18 -110.95,156.72 -110.95,257.22 0,100.53 36.87,186.07 110.95,256.92 74.05,71.15 163.08,106.59 267.73,106.59 104.65,0 193.65,-35.44 267.73,-106.59 73.75,-70.85 110.59,-156.39 110.59,-256.92 0,-100.5 -36.84,-186.04 -110.59,-257.22 -74.08,-71.15 -163.08,-106.59 -267.73,-106.59zm208.28 621.69l-92.67 0 -59.48 -126.06c-30.21,-62.88 -62.43,-94.47 -97.3,-94.47l-50.52 0 0 220.53 -76.08 0 0 -524.65 153.47 0c63.8,0 112.95,12.74 147.49,38.6 34.22,25.86 51.51,60.64 51.51,104.35 0,36.07 -11.98,66.7 -36.22,91.93 -24.24,25.2 -58.13,42.43 -101.63,51.06l0 2.24c30.21,6.06 60.13,38.28 90.02,96.68l71.41 139.79zm-299.97 -461.8l0 179.05 82.05 0c75.09,0 112.59,-30.01 112.59,-89.99 0,-32.25 -9.94,-55.24 -30.19,-68.94 -20.27,-13.41 -52.49,-20.12 -96.35,-20.12l-68.1 0zm-6629.11 7545.55c-46.01,22.96 -117.52,37.92 -187.51,37.92 -216.32,0 -341.66,-143.26 -341.66,-366.14 0,-239.34 138.45,-375.67 346.92,-375.67 74.07,0 136.24,16.07 179.62,37.89l27.71 -96.11c-30.31,-16.09 -100.33,-40.61 -211.1,-40.61 -276.15,0 -464.79,193.42 -464.79,478.35 0,298.69 188.64,460.7 439.74,460.7 108.15,0 192.73,-21.44 235.01,-43.26l-23.94 -93.07zm419.94 -545.73c-177,0 -316.97,128.29 -316.97,346.97 0,206.79 133.23,336.61 306.52,336.61 154.15,0 318.07,-105.31 318.07,-347.33 0,-199.92 -124.24,-336.25 -307.62,-336.25zm-2.63 89.24c137.35,0 191.24,140.15 191.24,251.22 0,147.05 -83.06,253.91 -193.87,253.91 -113.75,0 -194.22,-108 -194.22,-251.25 0,-124.45 59.54,-253.88 196.85,-253.88zm456.94 579.41l116.02 0 0 -959.31 -116.02 0 0 959.31zm311.74 0l116 0 0 -959.31 -116 0 0 959.31zm825.17 -305.23c1.13,-12.24 3.73,-31.02 3.73,-55.53 0,-120.24 -55.39,-307.89 -263.82,-307.89 -186.37,0 -299.77,155.11 -299.77,352.31 0,197.63 117.49,329.75 314.37,329.75 101.4,0 171.41,-21.44 212.53,-40.61l-19.8 -85c-43.8,19.14 -93.96,33.71 -177.02,33.71 -116,0 -216.68,-65.9 -219.31,-226.74l449.09 0zm-447.56 -85.39c9.31,-82.35 60.61,-193.03 178.1,-193.03 130.62,0 162.42,117.58 161.28,193.03l-339.38 0zm1044.05 -263.1l-5.2 98.44 -2.62 0c-27.71,-54.02 -88.71,-113.37 -199.48,-113.37 -146.33,0 -287.8,125.61 -287.8,346.97 0,181.14 113.4,319 272.09,319 98.8,0 167.65,-48.64 203.18,-109.52l2.63 0 0 73.15c0,164.66 -87.18,228.23 -205.81,228.23 -79.36,0 -145.22,-24.51 -187.5,-51.3l-29.2 90.38c51.65,35.23 136.24,53.98 212.58,53.98 80.44,0 170.28,-18.75 232.38,-78.1 62.14,-56.7 91.31,-148.6 91.31,-298.73l0 -379.51c0,-79.66 2.62,-132.51 5.25,-179.62l-101.81 0zm-18.3 375.3c0,20.31 -2.63,43.3 -9.38,63.57 -25.05,75.84 -89.81,121.79 -160.9,121.79 -125.76,0 -189,-106.83 -189,-235.13 0,-151.29 79.33,-247.4 190.1,-247.4 84.59,0 141.47,56.67 162.43,125.61 5.22,16.45 6.75,33.71 6.75,53.98l0 117.58zm821.04 -26.81c1.14,-12.24 3.74,-31.02 3.74,-55.53 0,-120.24 -55.39,-307.89 -263.82,-307.89 -186.37,0 -299.74,155.11 -299.74,352.31 0,197.63 117.49,329.75 314.34,329.75 101.42,0 171.41,-21.44 212.55,-40.61l-19.82 -85c-43.78,19.14 -93.94,33.71 -177,33.71 -116.02,0 -216.7,-65.9 -219.33,-226.74l449.08 0zm-447.56 -85.39c9.35,-82.35 60.61,-193.03 178.13,-193.03 130.63,0 162.42,117.58 161.29,193.03l-339.42 0zm-16072.43 -6820.81c102.52,113.69 205.06,227.43 315.77,334.47 444.32,429.6 967.4,751.83 1551.03,992.11 466.12,191.9 951.27,329.8 1444.51,444.55 469.88,109.38 1073.91,211.3 1549.79,293.66l6.39 4231.58c-41.99,67.24 -107.75,254.15 -899.78,679.7l9.5 -4462.06c0,0 111.57,21.18 0,0 -443.92,-84.45 -1284.8,-383.63 -1697.65,-561.26 -182.07,-78.31 -358.08,-167.05 -525.57,-270.05 -262.65,-161.42 -521.93,-327.05 -765.94,-512.78 -260.53,-198.3 -484.3,-427.96 -676.04,-685.16 -114.28,-153.31 -226.08,-308.12 -328.37,-468.86l-285.16 -380.27 301.52 364.37zm-13.89 -289.33c214.24,72.68 427.96,144.28 648.3,199.91 338.97,85.71 682.72,147.57 1030.82,191.28 556.67,69.81 1115.83,83.9 1676.07,66.38 385.18,-12.01 768.88,-44.56 1151.43,-89.68 677.58,-80.02 2131.46,-379.26 2131.46,-379.26l0 570.38c0,0 -421.97,94.81 -793.68,150.68 -339.9,51.17 -1080.76,104.62 -1424.5,128.47 -290.44,20.1 -580.9,25.86 -871.64,18.53 -187.3,-4.75 -373.28,-24.6 -558.7,-50.55 -208.48,-29.13 -417.29,-57.89 -626.87,-78.85 -839.09,-83.83 -1896.24,-437.54 -2629.54,-830.98 -5.52,-2.96 252.83,99.65 266.85,103.69zm-272.37 -71.71c47.68,29.66 116.73,74.23 195.58,125.21l9.92 6.41c207.27,134.02 477.8,309.16 608.72,376.2 405.3,207.61 831,369.92 1270.86,500.63 369.3,109.85 745.45,195.01 1126.28,261.8 272.76,47.83 547.17,85.93 823.03,115.06 346.55,36.61 693.94,60.93 1042.59,74.4 374.76,14.49 749.49,13.32 1124.09,4.29 185.67,-4.51 600.99,-43.4 616.27,-44.88l0.38 0.62 13.49 3348.04 0 0.22c-183.17,411.28 -454.06,799.9 -744.05,1151.51 -19.39,23.52 -37.86,47.84 -59.37,69.5l-1.08 -0.39 -35.07 -4062.92 -0.31 -0.55c-9.96,-0.71 -240.9,-16.74 -339.53,-20.1 -333.52,-11.53 -666.91,-26.33 -999.35,-53.53 -499.78,-40.97 -995.54,-107.27 -1482.15,-225.56 -242.22,-58.9 -475.79,-139.06 -706.64,-228.57 -298.01,-115.62 -601.3,-219.17 -894.87,-345.14 -362.22,-155.37 -695.27,-353.4 -1002.23,-590.1 -102.78,-79.31 -205.14,-159.32 -299.64,-247.51 -3.05,-11.61 -280.72,-218.77 -266.92,-214.64zm104.95 132.2l-13.94 -12.08 13.94 12.08zm-51.62 -72.39l-5.08 -2.65 4.93 2.71 0.15 -0.06zm9177.6 5891.41l121.58 -454.34c31.56,-112.68 50.58,-198.2 65.66,-284.81l2.5 0c11.47,88.08 29.41,173.23 55.93,284.81l107.25 454.34 115.1 0 241.72 -872.73 -112.62 0 -112.59 440.39c-26.55,108.62 -50.55,205.9 -68.14,301.68l-2.51 0c-12.57,-92.11 -35.53,-195.62 -59.53,-299.11l-103.67 -442.96 -115.1 0 -114.05 440.39c-29.05,112.68 -55.57,216.17 -69.57,302.79l-2.51 0c-15.08,-84.05 -38.04,-192.67 -63.12,-301.68l-101.51 -441.5 -116.21 0 216.29 872.73 115.1 0zm1211.02 0c-7.56,-42.58 -10.07,-95.78 -10.07,-150.1l0 -234.53c0,-125.52 -45.56,-256.17 -232.73,-256.17 -77.13,0 -150.66,22.03 -201.21,55.41l25.47 75.24c42.69,-28.63 102.2,-46.6 159.23,-46.6 125.16,0 139.16,93.21 139.16,144.95l0 12.87c-236.71,-1.1 -368.35,81.84 -368.35,233.04 0,90.65 63.51,180.19 187.59,180.19 87.16,0 152.78,-44.04 187.21,-93.22l3.58 0 8.96 78.92 101.16 0zm-117.64 -211.03c0,11.73 -2.51,24.6 -6.45,36.33 -17.59,52.85 -68.17,104.59 -147.79,104.59 -57,0 -105.07,-34.87 -105.07,-108.62 0,-121.49 137.73,-143.49 259.31,-140.93l0 108.63zm287.23 211.03l111.19 0 0 -919.34 -111.19 0 0 919.34zm323.86 -776.95l0 150.48 -94.68 0 0 86.59 94.68 0 0 341.68c0,73.78 11.46,129.56 43.05,163.32 26.52,30.85 68.5,47.72 120.15,47.72 43.02,0 77.09,-6.24 98.62,-15.41l-5.02 -85.51c-14,4.03 -35.53,7.7 -64.58,7.7 -62.01,0 -83.57,-44.04 -83.57,-121.49l0 -338.01 159.62 0 0 -86.59 -159.62 0 0 -180.22 -108.65 29.74zm393.79 776.95l111.19 0 0 -378.03c0,-22 1.43,-38.9 7.52,-54.31 20.45,-62.4 77.12,-114.14 149.17,-114.14 105.1,0 142.03,85.51 142.03,186.46l0 360.02 111.22 0 0 -372.89c0,-216.17 -131.67,-267.91 -213.75,-267.91 -42.01,0 -81.06,12.84 -114.06,32.3 -34.09,19.44 -62.07,47.72 -79.63,80.38l-2.5 0 0 -391.22 -111.19 0 0 919.34zm1142.28 0c-7.55,-42.58 -10.06,-95.78 -10.06,-150.1l0 -234.53c0,-125.52 -45.53,-256.17 -232.74,-256.17 -77.12,0 -150.63,22.03 -201.21,55.41l25.47 75.24c42.7,-28.63 102.2,-46.6 159.26,-46.6 125.13,0 139.14,93.21 139.14,144.95l0 12.87c-236.71,-1.1 -368.33,81.84 -368.33,233.04 0,90.65 63.48,180.19 187.57,180.19 87.15,0 152.78,-44.04 187.2,-93.22l3.59 0 8.95 78.92 101.16 0zm-117.64 -211.03c0,11.73 -2.5,24.6 -6.45,36.33 -17.58,52.85 -68.16,104.59 -147.76,104.59 -57.03,0 -105.07,-34.87 -105.07,-108.62 0,-121.49 137.7,-143.49 259.28,-140.93l0 108.63zm287.26 211.03l108.68 0 0 -378.03c0,-19.43 2.51,-38.9 8.96,-55.77 17.56,-56.88 68.16,-113.79 137.7,-113.79 85.01,0 127.67,72.32 127.67,172.13l0 375.46 109.04 0 0 -387.19c0,-20.54 3.58,-41.47 8.96,-56.88 18.66,-55.8 68.16,-103.52 131.28,-103.52 89.99,0 133.04,72.32 133.04,192.7l0 354.89 108.69 0 0 -368.83c0,-217.66 -120.15,-271.97 -201.21,-271.97 -58.11,0 -98.62,15.41 -135.2,44.04 -25.47,19.47 -49.5,46.61 -68.52,81.48l-2.51 0c-26.51,-73.78 -89.66,-125.52 -173.2,-125.52 -101.13,0 -158.18,55.41 -192.22,115.25l-3.97 0 -5.02 -100.92 -97.54 0c3.94,51.74 5.37,104.59 5.37,169.53l0 456.94zm1326.95 -872.73l0 872.73 110.12 0 0 -872.73 -110.12 0zm311.53 872.73l111.19 0 0 -376.92c0,-19.44 2.51,-38.55 7.53,-52.85 18.99,-63.48 76.01,-116.71 149.16,-116.71 105.1,0 142.04,84.4 142.04,185.35l0 361.13 111.18 0 0 -374.35c0,-214.71 -131.64,-266.45 -216.25,-266.45 -101.16,0 -172.16,57.98 -202.61,117.82l-2.51 0 -6.12 -103.49 -98.98 0c3.94,51.74 5.37,104.59 5.37,169.53l0 456.94zm722.13 -776.95l0 150.48 -94.67 0 0 86.59 94.67 0 0 341.68c0,73.78 11.47,129.56 43.06,163.32 26.51,30.85 68.49,47.72 120.14,47.72 43.03,0 77.1,-6.24 98.62,-15.41l-5.01 -85.51c-14.01,4.03 -35.5,7.7 -64.58,7.7 -62.02,0 -83.57,-44.04 -83.57,-121.49l0 -338.01 159.61 0 0 -86.59 -159.61 0 0 -180.22 -108.66 29.74zm885.84 484.43c1.08,-11.73 3.59,-29.7 3.59,-53.2 0,-115.25 -53.06,-295.08 -252.84,-295.08 -178.57,0 -287.28,148.63 -287.28,337.66 0,189.35 112.62,315.98 301.26,315.98 97.21,0 164.27,-20.55 203.71,-38.91l-18.99 -81.48c-41.95,18.36 -90.05,32.31 -169.65,32.31 -111.18,0 -207.62,-63.12 -210.13,-217.28l430.33 0zm-428.93 -81.83c8.96,-78.92 58.1,-184.97 170.73,-184.97 125.16,0 155.61,112.68 154.57,184.97l-325.3 0zm570.61 374.35l109.75 0 0 -333.99c0,-19.43 2.87,-37.44 5.38,-53.2 15.04,-85.51 70.64,-146.07 149.19,-146.07 15.05,0 26.52,1.11 37.98,3.68l0 -107.55c-10.36,-2.57 -18.99,-3.67 -31.89,-3.67 -74.58,0 -141.67,52.85 -169.26,137.25l-5.01 0 -3.97 -122.92 -97.55 0c3.94,57.98 5.38,121.46 5.38,195.24l0 431.23zm413.85 0l111.19 0 0 -376.92c0,-19.44 2.51,-38.55 7.55,-52.85 18.99,-63.48 76.02,-116.71 149.17,-116.71 105.1,0 142.03,84.4 142.03,185.35l0 361.13 111.19 0 0 -374.35c0,-214.71 -131.64,-266.45 -216.26,-266.45 -101.15,0 -172.16,57.98 -202.64,117.82l-2.51 0 -6.09 -103.49 -99.01 0c3.95,51.74 5.38,104.59 5.38,169.53l0 456.94zm1142.31 0c-7.55,-42.58 -10.06,-95.78 -10.06,-150.1l0 -234.53c0,-125.52 -45.56,-256.17 -232.74,-256.17 -77.12,0 -150.66,22.03 -201.21,55.41l25.47 75.24c42.67,-28.63 102.2,-46.6 159.23,-46.6 125.16,0 139.17,93.21 139.17,144.95l0 12.87c-236.71,-1.1 -368.35,81.84 -368.35,233.04 0,90.65 63.5,180.19 187.59,180.19 87.15,0 152.78,-44.04 187.2,-93.22l3.59 0 8.96 78.92 101.15 0zm-117.64 -211.03c0,11.73 -2.5,24.6 -6.45,36.33 -17.58,52.85 -68.16,104.59 -147.79,104.59 -57,0 -105.07,-34.87 -105.07,-108.62 0,-121.49 137.73,-143.49 259.31,-140.93l0 108.63zm312.37 -565.92l0 150.48 -94.68 0 0 86.59 94.68 0 0 341.68c0,73.78 11.47,129.56 43.03,163.32 26.51,30.85 68.52,47.72 120.14,47.72 43.06,0 77.09,-6.24 98.62,-15.41l-5.02 -85.51c-14,4.03 -35.5,7.7 -64.55,7.7 -62.04,0 -83.57,-44.04 -83.57,-121.49l0 -338.01 159.59 0 0 -86.59 -159.59 0 0 -180.22 -108.65 29.74zm504.95 776.95l0 -626.47 -111.19 0 0 626.47 111.19 0zm-55.57 -873.84c-40.54,0 -69.59,30.81 -69.59,71.18 0,38.91 27.59,69.75 67.09,69.75 44.07,0 72.04,-30.84 70.61,-69.75 0,-40.37 -26.54,-71.18 -68.11,-71.18zm499.91 233.04c-169.62,0 -303.77,122.95 -303.77,332.52 0,198.16 127.7,322.58 293.73,322.58 147.77,0 304.85,-100.92 304.85,-332.85 0,-191.6 -119.04,-322.25 -294.81,-322.25zm-2.51 85.51c131.64,0 183.29,134.33 183.29,240.77 0,140.93 -79.63,243.31 -185.8,243.31 -109.01,0 -186.13,-103.49 -186.13,-240.74 0,-119.28 57.03,-243.34 188.64,-243.34zm437.92 555.29l111.19 0 0 -376.92c0,-19.44 2.5,-38.55 7.52,-52.85 18.99,-63.48 76.05,-116.71 149.2,-116.71 105.07,0 142.03,84.4 142.03,185.35l0 361.13 111.19 0 0 -374.35c0,-214.71 -131.64,-266.45 -216.26,-266.45 -101.16,0 -172.19,57.98 -202.64,117.82l-2.51 0 -6.09 -103.49 -99.01 0c3.94,51.74 5.38,104.59 5.38,169.53l0 456.94zm1142.28 0c-7.55,-42.58 -10.06,-95.78 -10.06,-150.1l0 -234.53c0,-125.52 -45.53,-256.17 -232.74,-256.17 -77.12,0 -150.63,22.03 -201.21,55.41l25.47 75.24c42.7,-28.63 102.23,-46.6 159.26,-46.6 125.13,0 139.13,93.21 139.13,144.95l0 12.87c-236.71,-1.1 -368.32,81.84 -368.32,233.04 0,90.65 63.48,180.19 187.57,180.19 87.15,0 152.78,-44.04 187.2,-93.22l3.59 0 8.95 78.92 101.16 0zm-117.64 -211.03c0,11.73 -2.51,24.6 -6.45,36.33 -17.58,52.85 -68.13,104.59 -147.76,104.59 -57.03,0 -105.07,-34.87 -105.07,-108.62 0,-121.49 137.7,-143.49 259.28,-140.93l0 108.63zm287.26 211.03l111.19 0 0 -919.34 -111.19 0 0 919.34z"/>
   </g>
   <g id="_1790834221520">
    <path fill="#006BB6" fill-rule="nonzero" d="M9742.33 4968.95l-1190.71 -4311.13 609.57 0 682.42 2825.7c72.88,295.38 136.83,590.76 190.16,882.73 113.73,-460.99 181.26,-727.35 200.82,-797.34l854.82 -2911.09 716.16 0 643.33 2182.03c161.74,541.23 277.26,1050.03 348.32,1526.4 56.88,-273.19 131.52,-585.65 223.93,-939.07l703.77 -2769.36 597.11 0 -1229.79 4311.13 -574.04 0 -945.43 -3284.99c-79.96,-274.9 -126.18,-442.22 -140.39,-505.4 -47.98,198.04 -90.62,367.1 -131.49,505.4l-952.57 3284.99 -605.99 0zm5235.46 0l0 -4311.13 593.57 0 0 4311.13 -593.57 0zm4842.72 -1511.02l593.59 143.41c-124.41,469.53 -348.31,826.36 -671.76,1072.23 -323.47,245.88 -717.98,368.8 -1185.37,368.8 -485.18,0 -877.89,-93.9 -1180.02,-283.43 -303.89,-189.51 -533.13,-462.7 -691.32,-822.96 -158.15,-358.56 -238.11,-744.41 -238.11,-1155.9 0,-449.02 88.83,-840.04 268.3,-1174.68 177.74,-332.94 431.86,-587.32 762.44,-761.48 328.76,-172.46 691.28,-259.52 1087.61,-259.52 449.59,0 826.36,109.28 1132.01,329.51 305.68,220.25 518.95,527.57 639.79,925.39l-584.67 133.2c-104.86,-314.16 -255.94,-542.96 -453.18,-686.36 -197.29,-141.74 -446.06,-213.42 -746.43,-213.42 -344.73,0 -632.62,78.52 -863.65,237.3 -232.83,158.78 -394.54,372.2 -488.74,640.26 -94.2,268.06 -142.18,542.96 -142.18,828.1 0,367.09 55.12,686.36 167.05,959.55 111.97,273.17 284.36,478.08 518.92,612.95 234.62,134.89 488.74,203.18 762.44,203.18 332.31,0 614.85,-92.2 845.89,-276.6 229.25,-184.4 385.67,-457.57 467.39,-819.53z"/>
    <path fill="#0F79BF" fill-rule="nonzero" d="M9105.92 2664.32l-554.18 -2006.5 609.54 0 546.83 2264.23c-217.06,-80.55 -418.42,-166.66 -602.19,-257.73zm1256.34 470.17l727.24 -2476.67 716.18 0 643.34 2182.03c72.7,243.37 136.09,480.2 190.28,710.46 -186.1,-18.63 -368.8,-40.19 -547.82,-64.49l-518.59 -1801.86c-79.96,-274.9 -126.18,-442.22 -140.42,-505.4 -47.98,198.04 -90.62,367.1 -131.49,505.4l-456.64 1574.73c-166.04,-38.81 -326.88,-80.25 -482.08,-124.2zm2619.24 446.42c12.87,-50.36 26.12,-101.6 39.74,-153.73l703.77 -2769.36 597.14 0 -843.02 2955.25c-167.98,-8.45 -333.98,-19.17 -497.63,-32.16zm1996.41 45.09c200.58,-6.54 398.6,-16.3 593.54,-29.23l0 -2938.95 -593.54 0 0 2968.18zm1558.62 -121.64c200.99,-25.38 397.52,-54.19 589.02,-86.26 -44.55,-194.4 -66.61,-407.49 -66.61,-639.72 0,-285.14 47.98,-560.04 142.18,-828.1 94.2,-268.06 255.88,-481.48 488.71,-640.26 231.03,-158.78 518.95,-237.3 863.68,-237.3 300.37,0 549.14,71.68 746.4,213.42 197.27,143.4 348.32,372.2 453.18,686.36l584.7 -133.2c-120.87,-397.82 -334.11,-705.14 -639.79,-925.39 -305.65,-220.23 -682.42,-329.51 -1132.04,-329.51 -396.33,0 -758.82,87.06 -1087.61,259.52 -330.55,174.16 -584.67,428.54 -762.41,761.48 -179.47,334.64 -268.33,725.66 -268.33,1174.68 0,251.1 29.77,492.65 88.92,724.28z"/>
   </g>
  </g>
 </g>
</svg>
